<?xml version="1.0" encoding="UTF-8"?>
<svg id="Capa_1" data-name="Capa 1" xmlns="http://www.w3.org/2000/svg" viewBox="113.77 -9.54 614.36 614.36">
  <defs>
    <style>
      .cls-1 {
        fill: #0c3e26;
      }
    </style>
  </defs>
  <g>
    <g>
      <path class="cls-1" d="M136.49,188.81c-6.02,0-10.91-4.89-10.91-10.91v-88.08c0-6.02,4.89-10.91,10.91-10.91h88.07c6.02,0,10.91,4.89,10.91,10.91s-4.89,10.91-10.91,10.91h-77.16v77.17c0,6.02-4.89,10.91-10.91,10.91Z"/>
      <path class="cls-1" d="M224.56,509.1h-88.07c-6.02,0-10.91-4.89-10.91-10.91v-88.07c0-6.02,4.89-10.91,10.91-10.91s10.91,4.89,10.91,10.91v77.16h77.16c6.02,0,10.91,4.89,10.91,10.91s-4.89,10.91-10.91,10.91Z"/>
    </g>
    <g>
      <path class="cls-1" d="M705.4,188.81c-6.02,0-10.91-4.89-10.91-10.91v-77.17h-77.17c-6.02,0-10.91-4.89-10.91-10.91s4.89-10.91,10.91-10.91h88.08c6.02,0,10.91,4.89,10.91,10.91v88.08c0,6.02-4.89,10.91-10.91,10.91Z"/>
      <path class="cls-1" d="M705.4,509.1h-88.08c-6.02,0-10.91-4.89-10.91-10.91s4.89-10.91,10.91-10.91h77.17v-77.16c0-6.02,4.89-10.91,10.91-10.91s10.91,4.89,10.91,10.91v88.07c0,6.02-4.89,10.91-10.91,10.91Z"/>
    </g>
  </g>
  <g>
    <path class="cls-1" d="M640.08,286.33c-2.26-2.32-5.48-3.55-8.77-3.16-3.23.26-80.31,7.48-105.98,15.03-23.8,7.03-48.19,16.38-65.28,37.29-13.48,16.51-19.48,37.99-19.48,58.64s5.93,40.38,16.38,53.41c-19.67,29.03-28.83,52.06-29.61,53.99-2.13,5.61.64,11.93,6.26,14.13,1.29.52,2.64.71,3.93.71,4.39,0,8.52-2.64,10.19-6.97.13-.45,8.39-21.22,26.38-47.93,12,6.32,27.93,10.19,45.15,10.19,25.03,0,52.83-8.19,75.28-28.96,35.29-32.64,47.35-135.85,48.64-147.53.39-3.23-.77-6.52-3.1-8.84ZM579.7,426.7c-29.16,26.96-70.05,27.74-92.76,16.97,19.8-25.48,47.67-53.22,84.7-73.02,5.29-2.84,7.29-9.42,4.45-14.71-2.84-5.35-9.48-7.35-14.77-4.52-39.8,21.29-69.47,50.51-90.7,77.54-11.16-19.35-13.1-55.93,6.32-79.67,14-17.16,35.48-24.51,54.51-30.12,17.61-5.16,64.89-10.51,88.31-12.97-5.1,35.67-18.32,100.44-40.06,120.5Z"/>
    <g>
      <path class="cls-1" d="M203.93,428.17c-6.02,0-10.91-4.89-10.91-10.91v-253.91c0-6.02,4.89-10.91,10.91-10.91s10.91,4.89,10.91,10.91v253.91c0,6.02-4.89,10.91-10.91,10.91Z"/>
      <path class="cls-1" d="M247.33,428.17c-6.02,0-10.91-4.89-10.91-10.91v-253.91c0-6.02,4.89-10.91,10.91-10.91s10.91,4.89,10.91,10.91v253.91c0,6.02-4.89,10.91-10.91,10.91Z"/>
      <path class="cls-1" d="M290.74,428.17c-6.02,0-10.91-4.89-10.91-10.91v-253.91c0-6.02,4.89-10.91,10.91-10.91s10.91,4.89,10.91,10.91v253.91c0,6.02-4.89,10.91-10.91,10.91Z"/>
      <path class="cls-1" d="M334.14,428.17c-6.02,0-10.91-4.89-10.91-10.91v-253.91c0-6.02,4.89-10.91,10.91-10.91s10.91,4.89,10.91,10.91v253.91c0,6.02-4.89,10.91-10.91,10.91Z"/>
      <path class="cls-1" d="M377.54,428.17c-6.02,0-10.91-4.89-10.91-10.91v-253.91c0-6.02,4.89-10.91,10.91-10.91s10.91,4.89,10.91,10.91v253.91c0,6.02-4.89,10.91-10.91,10.91Z"/>
      <path class="cls-1" d="M420.94,332.95c-6.02,0-10.91-4.89-10.91-10.91v-158.69c0-6.02,4.89-10.91,10.91-10.91s10.91,4.89,10.91,10.91v158.69c0,6.02-4.89,10.91-10.91,10.91Z"/>
      <path class="cls-1" d="M464.35,294.87c-6.02,0-10.91-4.89-10.91-10.91v-120.61c0-6.02,4.89-10.91,10.91-10.91s10.91,4.89,10.91,10.91v120.61c0,6.02-4.89,10.91-10.91,10.91Z"/>
      <path class="cls-1" d="M507.75,273.44c-6.02,0-10.91-4.89-10.91-10.91v-99.18c0-6.02,4.89-10.91,10.91-10.91s10.91,4.89,10.91,10.91v99.18c0,6.02-4.89,10.91-10.91,10.91Z"/>
      <path class="cls-1" d="M551.15,264.71c-6.02,0-10.91-4.89-10.91-10.91v-90.46c0-6.02,4.89-10.91,10.91-10.91s10.91,4.89,10.91,10.91v90.46c0,6.02-4.89,10.91-10.91,10.91Z"/>
      <path class="cls-1" d="M594.55,264.71c-6.02,0-10.91-4.89-10.91-10.91v-90.46c0-6.02,4.89-10.91,10.91-10.91s10.91,4.89,10.91,10.91v90.46c0,6.02-4.89,10.91-10.91,10.91Z"/>
      <path class="cls-1" d="M637.96,264.71c-6.02,0-10.91-4.89-10.91-10.91v-90.46c0-6.02,4.89-10.91,10.91-10.91s10.91,4.89,10.91,10.91v90.46c0,6.02-4.89,10.91-10.91,10.91Z"/>
    </g>
  </g>
</svg>